<svg width="60" height="60" viewBox="0 0 60 60" fill="none" xmlns="http://www.w3.org/2000/svg">
<g clip-path="url(#clip0_1662_2201)">
<path d="M45 17.5V30C45 34.25 41.75 37.5 37.5 37.5H17.5V42.5C17.5 45.25 19.75 47.5 22.5 47.5H47.5L55 55V22.5C55 19.75 52.75 17.5 50 17.5H45Z" fill="url(#paint0_linear_1662_2201)"/>
<path d="M10 5C7.25 5 5 7.25 5 10V42.5L12.5 35H37.5C40.25 35 42.5 32.75 42.5 30V10C42.5 7.25 40.25 5 37.5 5H10Z" fill="white"/>
</g>
<defs>
<linearGradient id="paint0_linear_1662_2201" x1="36.25" y1="17.5" x2="36.25" y2="55" gradientUnits="userSpaceOnUse">
<stop stop-color="#EA4581"/>
<stop offset="1" stop-color="#F2605D"/>
</linearGradient>
<clipPath id="clip0_1662_2201">
<rect width="60" height="60" fill="white"/>
</clipPath>
</defs>
</svg>
