<svg width="60" height="60" viewBox="0 0 60 60" fill="none" xmlns="http://www.w3.org/2000/svg">
<g clip-path="url(#clip0_1662_2157)">
<path fill-rule="evenodd" clip-rule="evenodd" d="M14.7659 52.5C20.9789 52.5 26.0159 47.4633 26.0159 41.25V36.0938H33.9846V41.25C33.9846 47.4633 39.1409 52.5 45.2346 52.5C51.3284 52.5 6.89555 52.5 14.7659 52.5Z" fill="#E94186"/>
<path fill-rule="evenodd" clip-rule="evenodd" d="M45.2344 60H14.7656C12.6945 60 11.0156 58.3209 11.0156 56.25C11.0156 54.1788 12.6945 52.5 14.7656 52.5C16.9423 52.5 43.1194 52.5 45.2344 52.5C47.3053 52.5 48.9844 54.1788 48.9844 56.25C48.9844 58.3209 47.3053 60 45.2344 60Z" fill="#E94186"/>
<path fill-rule="evenodd" clip-rule="evenodd" d="M58.125 14.5312H55.3125C50.9114 14.5312 47.1094 18.0989 47.1094 22.5H45.7031V14.5312C46.3547 11.322 49.0983 8.90625 52.5 8.90625H58.125C59.1605 8.90625 60 9.74578 60 10.7812V12.6562C60 13.6917 59.1605 14.5312 58.125 14.5312ZM4.6875 14.5312H1.875C0.839531 14.5312 0 13.6917 0 12.6562V10.7812C0 9.74578 0.839531 8.90625 1.875 8.90625H7.5C10.9015 8.90625 13.6453 11.322 14.2969 14.5312V22.5H12.8906C12.8906 18.0989 9.08859 14.5312 4.6875 14.5312Z" fill="white"/>
<path fill-rule="evenodd" clip-rule="evenodd" d="M12.6562 7.5H47.3438V22.9688C47.3438 32.5474 39.5787 40.3125 30 40.3125C20.4213 40.3125 12.6562 32.5474 12.6562 22.9688V7.5Z" fill="url(#paint0_linear_1662_2157)"/>
<path fill-rule="evenodd" clip-rule="evenodd" d="M12.1875 0H47.8125C48.848 0 49.6875 0.839531 49.6875 1.875V3.75C49.6875 4.78547 48.848 5.625 47.8125 5.625H12.1875C11.152 5.625 10.3125 4.78547 10.3125 3.75V1.875C10.3125 0.839531 11.152 0 12.1875 0Z" fill="#EA497C"/>
<path fill-rule="evenodd" clip-rule="evenodd" d="M38.1698 21.1756C36.8409 22.5594 35.1248 24.4276 35.1248 24.4276C35.1248 24.4276 35.4194 26.7552 35.6498 28.6273C35.8884 30.5645 34.8135 30.3875 33.6452 29.8611C31.9619 29.1027 30.0004 28.1513 30.0004 28.1513C30.0004 28.1513 28.0389 29.1027 26.3556 29.8611C25.1873 30.3875 24.1122 30.5645 24.3508 28.6273C24.5814 26.7552 24.876 24.4276 24.876 24.4276C24.876 24.4276 23.1599 22.5594 21.831 21.1756C21.1579 20.4748 20.9774 19.5198 22.4158 19.2505C24.306 18.8963 26.8333 18.4016 26.8333 18.4016C26.8333 18.4016 27.9199 15.9284 28.8897 14.2466C29.3877 13.3827 30.6131 13.3827 31.1111 14.2466C32.0809 15.9284 33.1675 18.4016 33.1675 18.4016C33.1675 18.4016 35.6948 18.8963 37.585 19.2505C39.0231 19.5198 38.8429 20.4748 38.1698 21.1756Z" fill="white"/>
</g>
<defs>
<linearGradient id="paint0_linear_1662_2157" x1="30" y1="40.3125" x2="30" y2="7.5" gradientUnits="userSpaceOnUse">
<stop stop-color="#E84187"/>
<stop offset="1" stop-color="#F56B4F"/>
</linearGradient>
<clipPath id="clip0_1662_2157">
<rect width="60" height="60" fill="white"/>
</clipPath>
</defs>
</svg>
