<svg width="60" height="60" viewBox="0 0 60 60" fill="none" xmlns="http://www.w3.org/2000/svg">
<path d="M29.9991 14.4824C17.6275 14.4824 18.9993 29.5271 19.0558 40.4295C19.0579 40.8412 19.2735 41.2124 19.6262 41.425C20.9971 42.2514 24.762 44.1836 29.999 44.1836C35.236 44.1836 39.001 42.2514 40.3719 41.425C40.7245 41.2124 40.9402 40.8412 40.9422 40.4295C40.9989 29.5271 42.3707 14.4824 29.9991 14.4824Z" fill="#694B4B"/>
<path d="M29.2012 14.5137C17.6951 15.1587 18.9998 29.7698 19.055 40.4297C19.0572 40.8414 19.2727 41.2126 19.6254 41.4252C20.9964 42.2516 24.7613 44.1838 29.9983 44.1838L33.1247 22.2988" fill="#5A4146"/>
<path d="M29.9995 14.4824C22.965 14.4824 22.4766 22.9824 22.4766 22.9824C26.5313 22.2985 29.0225 24.0082 33.1261 22.2985L29.9995 44.1836C35.2365 44.1836 39.0015 42.2514 40.3724 41.425C40.725 41.2124 40.9407 40.8412 40.9429 40.4295C40.9993 29.5272 42.3711 14.4824 29.9995 14.4824Z" fill="#694B4B"/>
<path d="M40.9423 40.4298C40.9908 31.0615 42.0022 18.6438 34.4385 15.332C34.3067 16.0173 34.0676 17.9307 34.6886 19.1724C36.2519 22.2988 37.8151 22.2988 39.3783 24.6436C40.9416 33.2413 36.3913 42.367 34.8803 43.609C37.5578 42.9722 39.4772 41.9645 40.3719 41.4252C40.7245 41.2128 40.9401 40.8415 40.9423 40.4298Z" fill="#785550"/>
<path d="M41.8464 42.8013L34.8721 39.8952C34.2896 39.6525 33.9101 39.0832 33.9101 38.4523V36.5635H26.0941V38.4523C26.0941 39.0834 25.7146 39.6525 25.1321 39.8952L18.1578 42.8013C17.284 43.1652 16.7148 44.0191 16.7148 44.9657V49.6554C16.7148 50.5188 17.4147 51.2187 18.2781 51.2187H41.7264C42.5897 51.2187 43.2897 50.5189 43.2897 49.6554V44.9657C43.2892 44.0191 42.7202 43.1652 41.8464 42.8013Z" fill="#E6AF78"/>
<path d="M41.8427 42.801L35.0994 39.9913L29.9982 42.1927L24.8972 39.9912L18.1539 42.8009C17.2801 43.1649 16.7109 44.0187 16.7109 44.9653V49.6552C16.7109 50.5185 17.4108 51.2185 18.2742 51.2185H41.7225C42.5858 51.2185 43.2858 50.5186 43.2858 49.6552V44.9655C43.2855 44.0188 42.7165 43.165 41.8427 42.801Z" fill="#DD9F3E"/>
<path d="M33.9064 36.5635H26.0903V38.4523C26.0903 39.0834 25.7109 39.6525 25.1283 39.8952L24.0391 40.3491C32.3748 42.4748 33.9064 36.5635 33.9064 36.5635Z" fill="#D29B6E"/>
<path d="M20.5206 45.8245L17.3832 43.3291C16.9629 43.7589 16.7109 44.3402 16.7109 44.9654V49.655C16.7109 50.5183 17.4108 51.2183 18.2742 51.2183H21.4007V47.6555C21.4005 46.9432 21.0768 46.2695 20.5206 45.8245Z" fill="#FFD696"/>
<path d="M43.2874 49.6552V44.9654C43.2874 44.3452 43.0396 43.7678 42.6252 43.3389L39.4777 45.8246C38.9214 46.2696 38.5977 46.9433 38.5977 47.6557V51.2184H41.7241C42.5875 51.2184 43.2874 50.5185 43.2874 49.6552Z" fill="#FFD696"/>
<path d="M29.9964 48.0925C29.5648 48.0925 29.2148 47.7426 29.2148 47.311V42.1953H30.7781V47.311C30.7779 47.7426 30.428 48.0925 29.9964 48.0925Z" fill="#FFD696"/>
<path d="M29.999 42.1931L25.5255 38.838C25.2382 38.6226 24.8291 38.6927 24.63 38.9914L23.7461 40.3174L26.4888 44.1572C26.6972 44.449 27.108 44.506 27.3883 44.282L29.999 42.1931Z" fill="#FFD696"/>
<path d="M30 42.1931L34.4735 38.838C34.7607 38.6226 35.1698 38.6927 35.3689 38.9914L36.2529 40.3174L33.5102 44.1572C33.3018 44.449 32.891 44.506 32.6107 44.282L30 42.1931Z" fill="#FFD696"/>
<path d="M33.9096 21.5176C30.0016 25.4255 22.332 22.2991 22.332 28.5521L22.8173 33.1582C22.9109 34.1885 23.5082 35.1057 24.4125 35.6081L28.8627 38.0804C29.5709 38.4739 30.4319 38.4739 31.1401 38.0804L35.5903 35.6081C36.4945 35.1057 37.0918 34.1884 37.1854 33.1582L37.7457 27.6879C37.7855 27.299 37.7941 26.9079 37.7809 26.5177C37.4888 24.5279 34.6913 23.0807 33.9096 21.5176Z" fill="#F0C087"/>
<path d="M22.332 28.552L22.8173 33.158C22.9109 34.1884 23.5082 35.1056 24.4125 35.608L28.8627 38.0803C29.354 38.3532 29.9176 38.424 30.4541 38.318C30.4541 38.318 28.2103 37.6381 26.875 34.0232C26.4661 32.9158 25.8979 27.054 26.3865 26.3374C27.352 24.9212 32.737 24.7741 34.3282 22.147C34.2495 22.0495 34.177 21.9519 34.1107 21.854C34.1053 21.8462 34.0987 21.8382 34.0936 21.8304C34.0245 21.7264 33.9618 21.6223 33.9095 21.5176C30.0016 25.4255 22.332 22.2991 22.332 28.552Z" fill="#E6AF78"/>
<path d="M35.9991 48.0918H33.3783C32.807 48.0918 32.3438 48.555 32.3438 49.1263V51.2184H37.0335V49.1263C37.0336 48.5549 36.5704 48.0918 35.9991 48.0918Z" fill="#FFD696"/>
</svg>
