<svg width="60" height="60" viewBox="0 0 60 60" fill="none" xmlns="http://www.w3.org/2000/svg">
<path d="M11.4365 9.57457L8.25449 6.39258L1.89062 12.7567L5.0725 15.9387L6.66356 14.3474L11.8759 19.5599L15.0579 16.378L9.84555 11.1656L11.4365 9.57457Z" fill="white"/>
<path d="M58.1085 12.7568L51.7445 6.39258L48.5625 9.57457L50.1537 11.1659L44.9414 16.3784L48.1233 19.5602L53.3357 14.3477L54.9266 15.9388L58.1085 12.7568Z" fill="white"/>
<path d="M30 60C44.0833 60 55.5 48.5833 55.5 34.5C55.5 20.4167 44.0833 9 30 9C15.9167 9 4.5 20.4167 4.5 34.5C4.5 48.5833 15.9167 60 30 60Z" fill="url(#paint0_linear_1662_2183)"/>
<path d="M30 9V60C44.0832 60 55.5 48.5834 55.5 34.5C55.5 20.4166 44.0831 9 30 9Z" fill="url(#paint1_linear_1662_2183)"/>
<path d="M30 9C32.4853 9 34.5 6.98528 34.5 4.5C34.5 2.01472 32.4853 0 30 0C27.5147 0 25.5 2.01472 25.5 4.5C25.5 6.98528 27.5147 9 30 9Z" fill="white"/>
<path d="M32.2501 33.8585V17.2969H27.7501V33.8585C26.8675 34.5361 26.2969 35.6007 26.2969 36.7969C26.2969 38.8386 27.9581 40.5001 30.0001 40.5001C32.0419 40.5001 33.7034 38.8389 33.7034 36.7969C33.7032 35.6007 33.1327 34.5359 32.2501 33.8585Z" fill="white"/>
<path d="M34.5 4.5C34.5 2.0148 32.4852 0 30 0V9C32.4853 9 34.5 6.9852 34.5 4.5Z" fill="white"/>
<path d="M32.25 33.8585V17.2969H30V40.4999C32.0418 40.4999 33.7032 38.8386 33.7032 36.7966C33.7031 35.6007 33.1325 34.5359 32.25 33.8585Z" fill="white"/>
<defs>
<linearGradient id="paint0_linear_1662_2183" x1="30" y1="9" x2="30" y2="60" gradientUnits="userSpaceOnUse">
<stop stop-color="#E94186"/>
<stop offset="1" stop-color="#F46754"/>
</linearGradient>
<linearGradient id="paint1_linear_1662_2183" x1="42.75" y1="9" x2="42.75" y2="60" gradientUnits="userSpaceOnUse">
<stop stop-color="#E94186"/>
<stop offset="1" stop-color="#F46754"/>
</linearGradient>
</defs>
</svg>
