<svg width="60" height="60" viewBox="0 0 60 60" fill="none" xmlns="http://www.w3.org/2000/svg">
<path d="M27.5 25H32.5C36.0355 25 37.8033 25 38.9018 26.0982C40 27.1967 40 28.9645 40 32.5V47.5C40 43.9645 40 42.1968 41.0983 41.0983C42.1968 40 43.9645 40 47.5 40C51.0355 40 52.8032 40 53.9017 41.0983C55 42.1968 55 43.9645 55 47.5V55H40H20H5C5 51.4645 5 49.6968 6.09835 48.5983C7.1967 47.5 8.96448 47.5 12.5 47.5C16.0355 47.5 17.8033 47.5 18.9016 48.5983C20 49.6968 20 51.4645 20 55V32.5C20 28.9645 20 27.1967 21.0983 26.0982C22.1967 25 23.9645 25 27.5 25Z" fill="url(#paint0_linear_1662_2198)"/>
<path d="M27.8647 7.55628C28.8147 5.8521 29.2897 5 30 5C30.7102 5 31.1852 5.8521 32.1352 7.55628L32.381 7.99717C32.6507 8.48145 32.7857 8.7236 32.9962 8.88335C33.2067 9.04312 33.4687 9.10243 33.993 9.22103L34.4702 9.32903C36.315 9.74643 37.2375 9.95512 37.457 10.6608C37.6765 11.3665 37.0475 12.1018 35.79 13.5724L35.4645 13.9529C35.1072 14.3708 34.9285 14.5798 34.848 14.8383C34.7677 15.0968 34.7947 15.3756 34.8487 15.9332L34.898 16.4408C35.088 18.403 35.1832 19.384 34.6087 19.8202C34.034 20.2563 33.1705 19.8586 31.4432 19.0634L30.9965 18.8576C30.5055 18.6316 30.2602 18.5186 30 18.5186C29.7397 18.5186 29.4945 18.6316 29.0035 18.8576L28.5567 19.0634C26.8295 19.8586 25.966 20.2563 25.3912 19.8202C24.8168 19.384 24.9119 18.403 25.102 16.4408L25.1512 15.9332C25.2052 15.3756 25.2322 15.0968 25.152 14.8383C25.0715 14.5798 24.8928 14.3708 24.5354 13.9529L24.2101 13.5724C22.9524 12.1018 22.3236 11.3665 22.5431 10.6608C22.7625 9.95512 23.6849 9.74643 25.5297 9.32903L26.007 9.22103C26.5312 9.10243 26.7932 9.04312 27.0037 8.88335C27.2142 8.7236 27.3492 8.48145 27.619 7.99717L27.8647 7.55628Z" fill="white"/>
<defs>
<linearGradient id="paint0_linear_1662_2198" x1="55" y1="47" x2="5" y2="48.5" gradientUnits="userSpaceOnUse">
<stop stop-color="#EA4482"/>
<stop offset="1" stop-color="#F36359"/>
</linearGradient>
</defs>
</svg>
